<svg width="1440" height="150" viewBox="0 0 1440 150" fill="none" xmlns="http://www.w3.org/2000/svg">
<path fill-rule="evenodd" clip-rule="evenodd" d="M0 125.292L48 100.584C96 75.3014 192 25.8855 288 17.841C384 9.22195 480 42.549 576 38.5268C672 33.9299 768 -7.44157 864 1.17749C960 9.22195 1056 67.257 1152 79.8983C1248 91.965 1344 59.2125 1392 42.549L1440 25.8855V150H1392C1344 150 1248 150 1152 150C1056 150 960 150 864 150C768 150 672 150 576 150C480 150 384 150 288 150C192 150 96 150 48 150H0L0 125.292Z" fill="#F5F5F5"/>
</svg>
