<svg width="1440" height="200" viewBox="0 0 1440 200" fill="none" xmlns="http://www.w3.org/2000/svg">
<path fill-rule="evenodd" clip-rule="evenodd" d="M1440 176.001L1405.2 183.335C1371.6 190.668 1303.2 205.335 1234.8 198.001C1165.2 190.668 1096.8 161.334 1028.4 146.668C960 132.001 891.6 132.001 823.2 135.668C754.8 139.334 685.2 146.668 616.8 161.334C548.4 176.001 480 198.001 411.6 194.335C343.2 190.668 274.8 161.334 205.2 154.001C136.8 146.668 68.3999 161.334 34.7999 168.668L0 176.001V0H34.7999C68.3999 0 136.8 0 205.2 0C274.8 0 343.2 0 411.6 0C480 0 548.4 0 616.8 0C685.2 0 754.8 0 823.2 0C891.6 0 960 0 1028.4 0C1096.8 0 1165.2 0 1234.8 0C1303.2 0 1371.6 0 1405.2 0H1440V176.001Z" fill="#F5F5F5"/>
</svg>
